<svg width="36" height="16" viewBox="0 0 36 16" fill="none" xmlns="http://www.w3.org/2000/svg">
<path d="M0.275005 7.30499L7.46872 0.268346C7.83412 -0.0894488 8.42027 -0.0894488 8.78567 0.268346C9.15106 0.626142 9.15106 1.2001 8.78567 1.5579L3.18294 7.04409H35.0637C35.5813 7.04409 36 7.45407 36 7.96094C36 8.46782 35.5813 8.87779 35.0637 8.87779H3.18294L8.78567 14.3491C9.15106 14.7069 9.15106 15.2808 8.78567 15.6386C8.60297 15.8175 8.36699 15.907 8.12339 15.907C7.87979 15.907 7.64381 15.8175 7.46111 15.6386L0.267391 8.59454C-0.0903893 8.2442 -0.0903893 7.66278 0.275005 7.30499Z" fill="#FFFCFC"/>
</svg>
