<svg width="37" height="16" viewBox="0 0 37 16" fill="none" xmlns="http://www.w3.org/2000/svg">
<path d="M36.7235 7.30499L29.5298 0.268346C29.1644 -0.0894488 28.5783 -0.0894488 28.2129 0.268346C27.8475 0.626142 27.8475 1.2001 28.2129 1.5579L33.8156 7.04409H1.93486C1.41722 7.04409 0.998535 7.45407 0.998535 7.96094C0.998535 8.46782 1.41722 8.87779 1.93486 8.87779H33.8156L28.2129 14.3491C27.8475 14.7069 27.8475 15.2808 28.2129 15.6386C28.3956 15.8175 28.6315 15.907 28.8751 15.907C29.1187 15.907 29.3547 15.8175 29.5374 15.6386L36.7311 8.59454C37.0889 8.2442 37.0889 7.66278 36.7235 7.30499Z" fill="#FFFCFC"/>
</svg>
